<?xml version="1.0" encoding="UTF-8" standalone="no"?>
<!DOCTYPE svg PUBLIC "-//W3C//DTD SVG 1.1//EN"
 "http://www.w3.org/Graphics/SVG/1.1/DTD/svg11.dtd">
<!-- Generated by graphviz version 2.47.0 (20210316.0004)
 -->
<!-- Title: dependencies Pages: 1 -->
<svg width="1203pt" height="211pt"
 viewBox="0.00 0.00 1203.00 211.00" xmlns="http://www.w3.org/2000/svg" xmlns:xlink="http://www.w3.org/1999/xlink">
<g id="graph0" class="graph" transform="scale(1 1) rotate(0) translate(4 207)">
<title>dependencies</title>
<polygon fill="white" stroke="transparent" points="-4,4 -4,-207 1199,-207 1199,4 -4,4"/>
<text text-anchor="start" x="576.51" y="-42.4" font-family="sans-serif" font-weight="bold" font-size="14.00">Legend</text>
<polygon fill="#ffffb3" stroke="transparent" points="363.5,-10 363.5,-30 383.5,-30 383.5,-10 363.5,-10"/>
<text text-anchor="start" x="387.13" y="-15.4" font-family="sans-serif" font-size="14.00"> &#160;Declarations</text>
<polygon fill="#8dd3c7" stroke="transparent" points="476.5,-10 476.5,-30 496.5,-30 496.5,-10 476.5,-10"/>
<text text-anchor="start" x="500.23" y="-15.4" font-family="sans-serif" font-size="14.00"> &#160;Module</text>
<polygon fill="#80b1d3" stroke="transparent" points="562.5,-10 562.5,-30 582.5,-30 582.5,-10 562.5,-10"/>
<text text-anchor="start" x="586.28" y="-15.4" font-family="sans-serif" font-size="14.00"> &#160;Bootstrap</text>
<polygon fill="#fdb462" stroke="transparent" points="659.5,-10 659.5,-30 679.5,-30 679.5,-10 659.5,-10"/>
<text text-anchor="start" x="683.17" y="-15.4" font-family="sans-serif" font-size="14.00"> &#160;Providers</text>
<polygon fill="#fb8072" stroke="transparent" points="755.5,-10 755.5,-30 775.5,-30 775.5,-10 755.5,-10"/>
<text text-anchor="start" x="779.23" y="-15.4" font-family="sans-serif" font-size="14.00"> &#160;Exports</text>
<g id="clust1" class="cluster">
<title>cluster_ScreensModule</title>
<polygon fill="none" stroke="black" stroke-dasharray="1,5" points="8,-70 8,-195 1187,-195 1187,-70 8,-70"/>
</g>
<g id="clust2" class="cluster">
<title>cluster_ScreensModule_declarations</title>
<polygon fill="none" stroke="black" points="425,-78 425,-130 1179,-130 1179,-78 425,-78"/>
</g>
<g id="clust7" class="cluster">
<title>cluster_ScreensModule_imports</title>
<polygon fill="none" stroke="black" points="16,-78 16,-130 417,-130 417,-78 16,-78"/>
</g>
<!-- DashboardScreenComponent -->
<g id="node1" class="node">
<title>DashboardScreenComponent</title>
<polygon fill="#ffffb3" stroke="black" points="1171.06,-122 990.94,-122 990.94,-86 1171.06,-86 1171.06,-122"/>
<text text-anchor="middle" x="1081" y="-99.8" font-family="Times,serif" font-size="14.00">DashboardScreenComponent</text>
</g>
<!-- ScreensModule -->
<g id="node5" class="node">
<title>ScreensModule</title>
<polygon fill="#8dd3c7" stroke="black" points="566.58,-187 563.58,-191 542.58,-191 539.58,-187 463.42,-187 463.42,-151 566.58,-151 566.58,-187"/>
<text text-anchor="middle" x="515" y="-164.8" font-family="Times,serif" font-size="14.00">ScreensModule</text>
</g>
<!-- DashboardScreenComponent&#45;&gt;ScreensModule -->
<g id="edge1" class="edge">
<title>DashboardScreenComponent&#45;&gt;ScreensModule</title>
<path fill="none" stroke="black" d="M1081,-122.29C1081,-144.21 1081,-178 1081,-178 1081,-178 576.73,-178 576.73,-178"/>
<polygon fill="black" stroke="black" points="576.73,-174.5 566.73,-178 576.73,-181.5 576.73,-174.5"/>
</g>
<!-- DetailScreenComponent -->
<g id="node2" class="node">
<title>DetailScreenComponent</title>
<polygon fill="#ffffb3" stroke="black" points="972.63,-122 819.37,-122 819.37,-86 972.63,-86 972.63,-122"/>
<text text-anchor="middle" x="896" y="-99.8" font-family="Times,serif" font-size="14.00">DetailScreenComponent</text>
</g>
<!-- DetailScreenComponent&#45;&gt;ScreensModule -->
<g id="edge2" class="edge">
<title>DetailScreenComponent&#45;&gt;ScreensModule</title>
<path fill="none" stroke="black" d="M896,-122.11C896,-141.34 896,-169 896,-169 896,-169 576.78,-169 576.78,-169"/>
<polygon fill="black" stroke="black" points="576.78,-165.5 566.78,-169 576.78,-172.5 576.78,-165.5"/>
</g>
<!-- OnboardingScreenComponent -->
<g id="node3" class="node">
<title>OnboardingScreenComponent</title>
<polygon fill="#ffffb3" stroke="black" points="801.29,-122 614.71,-122 614.71,-86 801.29,-86 801.29,-122"/>
<text text-anchor="middle" x="708" y="-99.8" font-family="Times,serif" font-size="14.00">OnboardingScreenComponent</text>
</g>
<!-- OnboardingScreenComponent&#45;&gt;ScreensModule -->
<g id="edge3" class="edge">
<title>OnboardingScreenComponent&#45;&gt;ScreensModule</title>
<path fill="none" stroke="black" d="M708,-122.03C708,-138.4 708,-160 708,-160 708,-160 576.72,-160 576.72,-160"/>
<polygon fill="black" stroke="black" points="576.72,-156.5 566.72,-160 576.72,-163.5 576.72,-156.5"/>
</g>
<!-- SettingsScreenComponent -->
<g id="node4" class="node">
<title>SettingsScreenComponent</title>
<polygon fill="#ffffb3" stroke="black" points="597.03,-122 432.97,-122 432.97,-86 597.03,-86 597.03,-122"/>
<text text-anchor="middle" x="515" y="-99.8" font-family="Times,serif" font-size="14.00">SettingsScreenComponent</text>
</g>
<!-- SettingsScreenComponent&#45;&gt;ScreensModule -->
<g id="edge4" class="edge">
<title>SettingsScreenComponent&#45;&gt;ScreensModule</title>
<path fill="none" stroke="black" d="M515,-122.11C515,-122.11 515,-140.99 515,-140.99"/>
<polygon fill="black" stroke="black" points="511.5,-140.99 515,-150.99 518.5,-140.99 511.5,-140.99"/>
</g>
<!-- AppRoutingModule -->
<g id="node6" class="node">
<title>AppRoutingModule</title>
<polygon fill="#8dd3c7" stroke="black" points="409.27,-122 406.27,-126 385.27,-126 382.27,-122 280.73,-122 280.73,-86 409.27,-86 409.27,-122"/>
<text text-anchor="middle" x="345" y="-99.8" font-family="Times,serif" font-size="14.00">AppRoutingModule</text>
</g>
<!-- AppRoutingModule&#45;&gt;ScreensModule -->
<g id="edge5" class="edge">
<title>AppRoutingModule&#45;&gt;ScreensModule</title>
<path fill="none" stroke="black" d="M345,-122.03C345,-138.4 345,-160 345,-160 345,-160 453.07,-160 453.07,-160"/>
<polygon fill="black" stroke="black" points="453.07,-163.5 463.07,-160 453.07,-156.5 453.07,-163.5"/>
</g>
<!-- UiElementsModule -->
<g id="node7" class="node">
<title>UiElementsModule</title>
<polygon fill="#8dd3c7" stroke="black" points="262.65,-122 259.65,-126 238.65,-126 235.65,-122 137.35,-122 137.35,-86 262.65,-86 262.65,-122"/>
<text text-anchor="middle" x="200" y="-99.8" font-family="Times,serif" font-size="14.00">UiElementsModule</text>
</g>
<!-- UiElementsModule&#45;&gt;ScreensModule -->
<g id="edge6" class="edge">
<title>UiElementsModule&#45;&gt;ScreensModule</title>
<path fill="none" stroke="black" d="M200,-122.11C200,-141.34 200,-169 200,-169 200,-169 453.34,-169 453.34,-169"/>
<polygon fill="black" stroke="black" points="453.34,-172.5 463.34,-169 453.34,-165.5 453.34,-172.5"/>
</g>
<!-- ViewsModule -->
<g id="node8" class="node">
<title>ViewsModule</title>
<polygon fill="#8dd3c7" stroke="black" points="119.81,-122 116.81,-126 95.81,-126 92.81,-122 24.19,-122 24.19,-86 119.81,-86 119.81,-122"/>
<text text-anchor="middle" x="72" y="-99.8" font-family="Times,serif" font-size="14.00">ViewsModule</text>
</g>
<!-- ViewsModule&#45;&gt;ScreensModule -->
<g id="edge7" class="edge">
<title>ViewsModule&#45;&gt;ScreensModule</title>
<path fill="none" stroke="black" d="M72,-122.29C72,-144.21 72,-178 72,-178 72,-178 453.32,-178 453.32,-178"/>
<polygon fill="black" stroke="black" points="453.32,-181.5 463.32,-178 453.32,-174.5 453.32,-181.5"/>
</g>
</g>
</svg>
