<?xml version="1.0" encoding="UTF-8" standalone="no"?>
<!DOCTYPE svg PUBLIC "-//W3C//DTD SVG 1.1//EN"
 "http://www.w3.org/Graphics/SVG/1.1/DTD/svg11.dtd">
<!-- Generated by graphviz version 2.47.0 (20210316.0004)
 -->
<!-- Title: dependencies Pages: 1 -->
<svg width="2514pt" height="284pt"
 viewBox="0.00 0.00 2514.00 284.00" xmlns="http://www.w3.org/2000/svg" xmlns:xlink="http://www.w3.org/1999/xlink">
<g id="graph0" class="graph" transform="scale(1 1) rotate(0) translate(4 280)">
<title>dependencies</title>
<polygon fill="white" stroke="transparent" points="-4,4 -4,-280 2510,-280 2510,4 -4,4"/>
<text text-anchor="start" x="1232.01" y="-42.4" font-family="sans-serif" font-weight="bold" font-size="14.00">Legend</text>
<polygon fill="#ffffb3" stroke="transparent" points="1019,-10 1019,-30 1039,-30 1039,-10 1019,-10"/>
<text text-anchor="start" x="1042.63" y="-15.4" font-family="sans-serif" font-size="14.00"> &#160;Declarations</text>
<polygon fill="#8dd3c7" stroke="transparent" points="1132,-10 1132,-30 1152,-30 1152,-10 1132,-10"/>
<text text-anchor="start" x="1155.73" y="-15.4" font-family="sans-serif" font-size="14.00"> &#160;Module</text>
<polygon fill="#80b1d3" stroke="transparent" points="1218,-10 1218,-30 1238,-30 1238,-10 1218,-10"/>
<text text-anchor="start" x="1241.78" y="-15.4" font-family="sans-serif" font-size="14.00"> &#160;Bootstrap</text>
<polygon fill="#fdb462" stroke="transparent" points="1315,-10 1315,-30 1335,-30 1335,-10 1315,-10"/>
<text text-anchor="start" x="1338.67" y="-15.4" font-family="sans-serif" font-size="14.00"> &#160;Providers</text>
<polygon fill="#fb8072" stroke="transparent" points="1411,-10 1411,-30 1431,-30 1431,-10 1411,-10"/>
<text text-anchor="start" x="1434.73" y="-15.4" font-family="sans-serif" font-size="14.00"> &#160;Exports</text>
<g id="clust1" class="cluster">
<title>cluster_UiElementsModule</title>
<polygon fill="none" stroke="black" stroke-dasharray="1,5" points="8,-70 8,-268 2498,-268 2498,-70 8,-70"/>
</g>
<g id="clust2" class="cluster">
<title>cluster_UiElementsModule_declarations</title>
<polygon fill="none" stroke="black" points="41,-78 41,-130 2474,-130 2474,-78 41,-78"/>
</g>
<g id="clust16" class="cluster">
<title>cluster_UiElementsModule_exports</title>
<polygon fill="none" stroke="black" points="16,-208 16,-260 2490,-260 2490,-208 16,-208"/>
</g>
<!-- BackButtonElementComponent -->
<g id="node1" class="node">
<title>BackButtonElementComponent</title>
<polygon fill="#ffffb3" stroke="black" points="2466.37,-122 2271.63,-122 2271.63,-86 2466.37,-86 2466.37,-122"/>
<text text-anchor="middle" x="2369" y="-99.8" font-family="Times,serif" font-size="14.00">BackButtonElementComponent</text>
</g>
<!-- UiElementsModule -->
<g id="node13" class="node">
<title>UiElementsModule</title>
<polygon fill="#8dd3c7" stroke="black" points="1218.65,-187 1215.65,-191 1194.65,-191 1191.65,-187 1093.35,-187 1093.35,-151 1218.65,-151 1218.65,-187"/>
<text text-anchor="middle" x="1156" y="-164.8" font-family="Times,serif" font-size="14.00">UiElementsModule</text>
</g>
<!-- BackButtonElementComponent&#45;&gt;UiElementsModule -->
<g id="edge1" class="edge">
<title>BackButtonElementComponent&#45;&gt;UiElementsModule</title>
<path fill="none" stroke="black" d="M2277.69,-122.17C2277.69,-141.09 2277.69,-168 2277.69,-168 2277.69,-168 1228.71,-168 1228.71,-168"/>
<polygon fill="black" stroke="black" points="1228.71,-164.5 1218.71,-168 1228.71,-171.5 1228.71,-164.5"/>
</g>
<!-- CardElementComponent -->
<g id="node2" class="node">
<title>CardElementComponent</title>
<polygon fill="#ffffb3" stroke="black" points="2253.7,-122 2098.3,-122 2098.3,-86 2253.7,-86 2253.7,-122"/>
<text text-anchor="middle" x="2176" y="-99.8" font-family="Times,serif" font-size="14.00">CardElementComponent</text>
</g>
<!-- CardElementComponent&#45;&gt;UiElementsModule -->
<g id="edge2" class="edge">
<title>CardElementComponent&#45;&gt;UiElementsModule</title>
<path fill="none" stroke="black" d="M2102.53,-122.3C2102.53,-140.27 2102.53,-165 2102.53,-165 2102.53,-165 1228.84,-165 1228.84,-165"/>
<polygon fill="black" stroke="black" points="1228.84,-161.5 1218.84,-165 1228.84,-168.5 1228.84,-161.5"/>
</g>
<!-- CheckboxSwitcherElementComponent -->
<g id="node3" class="node">
<title>CheckboxSwitcherElementComponent</title>
<polygon fill="#ffffb3" stroke="black" points="2080.01,-122 1845.99,-122 1845.99,-86 2080.01,-86 2080.01,-122"/>
<text text-anchor="middle" x="1963" y="-99.8" font-family="Times,serif" font-size="14.00">CheckboxSwitcherElementComponent</text>
</g>
<!-- CheckboxSwitcherElementComponent&#45;&gt;UiElementsModule -->
<g id="edge3" class="edge">
<title>CheckboxSwitcherElementComponent&#45;&gt;UiElementsModule</title>
<path fill="none" stroke="black" d="M2003.84,-122.02C2003.84,-139.37 2003.84,-163 2003.84,-163 2003.84,-163 1228.69,-163 1228.69,-163"/>
<polygon fill="black" stroke="black" points="1228.69,-159.5 1218.69,-163 1228.69,-166.5 1228.69,-159.5"/>
</g>
<!-- MenuBarElementComponent -->
<g id="node4" class="node">
<title>MenuBarElementComponent</title>
<polygon fill="#ffffb3" stroke="black" points="1827.36,-122 1646.64,-122 1646.64,-86 1827.36,-86 1827.36,-122"/>
<text text-anchor="middle" x="1737" y="-99.8" font-family="Times,serif" font-size="14.00">MenuBarElementComponent</text>
</g>
<!-- MenuBarElementComponent&#45;&gt;UiElementsModule -->
<g id="edge4" class="edge">
<title>MenuBarElementComponent&#45;&gt;UiElementsModule</title>
<path fill="none" stroke="black" d="M1767.89,-122.03C1767.89,-138.4 1767.89,-160 1767.89,-160 1767.89,-160 1228.89,-160 1228.89,-160"/>
<polygon fill="black" stroke="black" points="1228.89,-156.5 1218.89,-160 1228.89,-163.5 1228.89,-156.5"/>
</g>
<!-- MenuButtonElementComponent -->
<g id="node5" class="node">
<title>MenuButtonElementComponent</title>
<polygon fill="#ffffb3" stroke="black" points="1628.26,-122 1429.74,-122 1429.74,-86 1628.26,-86 1628.26,-122"/>
<text text-anchor="middle" x="1529" y="-99.8" font-family="Times,serif" font-size="14.00">MenuButtonElementComponent</text>
</g>
<!-- MenuButtonElementComponent&#45;&gt;UiElementsModule -->
<g id="edge5" class="edge">
<title>MenuButtonElementComponent&#45;&gt;UiElementsModule</title>
<path fill="none" stroke="black" d="M1562.13,-122.24C1562.13,-137.57 1562.13,-157 1562.13,-157 1562.13,-157 1229.01,-157 1229.01,-157"/>
<polygon fill="black" stroke="black" points="1229.01,-153.5 1219.01,-157 1229.01,-160.5 1229.01,-153.5"/>
</g>
<!-- MenuElementComponent -->
<g id="node6" class="node">
<title>MenuElementComponent</title>
<polygon fill="#ffffb3" stroke="black" points="1411.15,-122 1250.85,-122 1250.85,-86 1411.15,-86 1411.15,-122"/>
<text text-anchor="middle" x="1331" y="-99.8" font-family="Times,serif" font-size="14.00">MenuElementComponent</text>
</g>
<!-- MenuElementComponent&#45;&gt;UiElementsModule -->
<g id="edge6" class="edge">
<title>MenuElementComponent&#45;&gt;UiElementsModule</title>
<path fill="none" stroke="black" d="M1304.14,-122.05C1304.14,-136.37 1304.14,-154 1304.14,-154 1304.14,-154 1228.83,-154 1228.83,-154"/>
<polygon fill="black" stroke="black" points="1228.83,-150.5 1218.83,-154 1228.83,-157.5 1228.83,-150.5"/>
</g>
<!-- NavBarElementComponent -->
<g id="node7" class="node">
<title>NavBarElementComponent</title>
<polygon fill="#ffffb3" stroke="black" points="1232.52,-122 1061.48,-122 1061.48,-86 1232.52,-86 1232.52,-122"/>
<text text-anchor="middle" x="1147" y="-99.8" font-family="Times,serif" font-size="14.00">NavBarElementComponent</text>
</g>
<!-- NavBarElementComponent&#45;&gt;UiElementsModule -->
<g id="edge7" class="edge">
<title>NavBarElementComponent&#45;&gt;UiElementsModule</title>
<path fill="none" stroke="black" d="M1156,-122.11C1156,-122.11 1156,-140.99 1156,-140.99"/>
<polygon fill="black" stroke="black" points="1152.5,-140.99 1156,-150.99 1159.5,-140.99 1152.5,-140.99"/>
</g>
<!-- PollenListElementComponent -->
<g id="node8" class="node">
<title>PollenListElementComponent</title>
<polygon fill="#ffffb3" stroke="black" points="1042.54,-122 857.46,-122 857.46,-86 1042.54,-86 1042.54,-122"/>
<text text-anchor="middle" x="950" y="-99.8" font-family="Times,serif" font-size="14.00">PollenListElementComponent</text>
</g>
<!-- PollenListElementComponent&#45;&gt;UiElementsModule -->
<g id="edge8" class="edge">
<title>PollenListElementComponent&#45;&gt;UiElementsModule</title>
<path fill="none" stroke="black" d="M1039.15,-122.12C1039.15,-136.78 1039.15,-155 1039.15,-155 1039.15,-155 1083.13,-155 1083.13,-155"/>
<polygon fill="black" stroke="black" points="1083.13,-158.5 1093.13,-155 1083.13,-151.5 1083.13,-158.5"/>
</g>
<!-- PollenTagElementComponent -->
<g id="node9" class="node">
<title>PollenTagElementComponent</title>
<polygon fill="#ffffb3" stroke="black" points="838.53,-122 653.47,-122 653.47,-86 838.53,-86 838.53,-122"/>
<text text-anchor="middle" x="746" y="-99.8" font-family="Times,serif" font-size="14.00">PollenTagElementComponent</text>
</g>
<!-- PollenTagElementComponent&#45;&gt;UiElementsModule -->
<g id="edge9" class="edge">
<title>PollenTagElementComponent&#45;&gt;UiElementsModule</title>
<path fill="none" stroke="black" d="M833.64,-122.28C833.64,-137.95 833.64,-158 833.64,-158 833.64,-158 1083.08,-158 1083.08,-158"/>
<polygon fill="black" stroke="black" points="1083.08,-161.5 1093.08,-158 1083.08,-154.5 1083.08,-161.5"/>
</g>
<!-- ProgressChartElementComponent -->
<g id="node10" class="node">
<title>ProgressChartElementComponent</title>
<polygon fill="#ffffb3" stroke="black" points="635.8,-122 428.2,-122 428.2,-86 635.8,-86 635.8,-122"/>
<text text-anchor="middle" x="532" y="-99.8" font-family="Times,serif" font-size="14.00">ProgressChartElementComponent</text>
</g>
<!-- ProgressChartElementComponent&#45;&gt;UiElementsModule -->
<g id="edge10" class="edge">
<title>ProgressChartElementComponent&#45;&gt;UiElementsModule</title>
<path fill="none" stroke="black" d="M628.52,-122.04C628.52,-138.73 628.52,-161 628.52,-161 628.52,-161 1083.16,-161 1083.16,-161"/>
<polygon fill="black" stroke="black" points="1083.16,-164.5 1093.16,-161 1083.16,-157.5 1083.16,-164.5"/>
</g>
<!-- SliderElementComponent -->
<g id="node11" class="node">
<title>SliderElementComponent</title>
<polygon fill="#ffffb3" stroke="black" points="410.93,-122 249.07,-122 249.07,-86 410.93,-86 410.93,-122"/>
<text text-anchor="middle" x="330" y="-99.8" font-family="Times,serif" font-size="14.00">SliderElementComponent</text>
</g>
<!-- SliderElementComponent&#45;&gt;UiElementsModule -->
<g id="edge11" class="edge">
<title>SliderElementComponent&#45;&gt;UiElementsModule</title>
<path fill="none" stroke="black" d="M401.53,-122.3C401.53,-140.27 401.53,-165 401.53,-165 401.53,-165 1083.29,-165 1083.29,-165"/>
<polygon fill="black" stroke="black" points="1083.29,-168.5 1093.29,-165 1083.29,-161.5 1083.29,-168.5"/>
</g>
<!-- TtsPlayerElementComponent -->
<g id="node12" class="node">
<title>TtsPlayerElementComponent</title>
<polygon fill="#ffffb3" stroke="black" points="230.64,-122 49.36,-122 49.36,-86 230.64,-86 230.64,-122"/>
<text text-anchor="middle" x="140" y="-99.8" font-family="Times,serif" font-size="14.00">TtsPlayerElementComponent</text>
</g>
<!-- TtsPlayerElementComponent&#45;&gt;UiElementsModule -->
<g id="edge12" class="edge">
<title>TtsPlayerElementComponent&#45;&gt;UiElementsModule</title>
<path fill="none" stroke="black" d="M218.55,-122.17C218.55,-141.09 218.55,-168 218.55,-168 218.55,-168 1083.04,-168 1083.04,-168"/>
<polygon fill="black" stroke="black" points="1083.04,-171.5 1093.04,-168 1083.04,-164.5 1083.04,-171.5"/>
</g>
<!-- BackButtonElementComponent  -->
<g id="node14" class="node">
<title>BackButtonElementComponent </title>
<polygon fill="#fb8072" stroke="black" points="2482.37,-252 2283.63,-252 2283.63,-216 2482.37,-216 2482.37,-252"/>
<text text-anchor="middle" x="2383" y="-229.8" font-family="Times,serif" font-size="14.00">BackButtonElementComponent </text>
</g>
<!-- UiElementsModule&#45;&gt;BackButtonElementComponent  -->
<g id="edge13" class="edge">
<title>UiElementsModule&#45;&gt;BackButtonElementComponent </title>
<path fill="none" stroke="black" stroke-dasharray="5,2" d="M1218.98,-171C1468.62,-171 2375.12,-171 2375.12,-171 2375.12,-171 2375.12,-205.78 2375.12,-205.78"/>
<polygon fill="black" stroke="black" points="2371.63,-205.78 2375.12,-215.78 2378.63,-205.78 2371.63,-205.78"/>
</g>
<!-- CardElementComponent  -->
<g id="node15" class="node">
<title>CardElementComponent </title>
<polygon fill="#fb8072" stroke="black" points="2265.2,-252 2106.8,-252 2106.8,-216 2265.2,-216 2265.2,-252"/>
<text text-anchor="middle" x="2186" y="-229.8" font-family="Times,serif" font-size="14.00">CardElementComponent </text>
</g>
<!-- UiElementsModule&#45;&gt;CardElementComponent  -->
<g id="edge14" class="edge">
<title>UiElementsModule&#45;&gt;CardElementComponent </title>
<path fill="none" stroke="black" stroke-dasharray="5,2" d="M1218.91,-174C1441.72,-174 2180.12,-174 2180.12,-174 2180.12,-174 2180.12,-206 2180.12,-206"/>
<polygon fill="black" stroke="black" points="2176.63,-206 2180.12,-216 2183.63,-206 2176.63,-206"/>
</g>
<!-- CheckboxSwitcherElementComponent  -->
<g id="node16" class="node">
<title>CheckboxSwitcherElementComponent </title>
<polygon fill="#fb8072" stroke="black" points="2089.01,-252 1850.99,-252 1850.99,-216 2089.01,-216 2089.01,-252"/>
<text text-anchor="middle" x="1970" y="-229.8" font-family="Times,serif" font-size="14.00">CheckboxSwitcherElementComponent </text>
</g>
<!-- UiElementsModule&#45;&gt;CheckboxSwitcherElementComponent  -->
<g id="edge15" class="edge">
<title>UiElementsModule&#45;&gt;CheckboxSwitcherElementComponent </title>
<path fill="none" stroke="black" stroke-dasharray="5,2" d="M1218.8,-176C1402.74,-176 1927.41,-176 1927.41,-176 1927.41,-176 1927.41,-205.97 1927.41,-205.97"/>
<polygon fill="black" stroke="black" points="1923.91,-205.97 1927.41,-215.97 1930.91,-205.97 1923.91,-205.97"/>
</g>
<!-- MenuBarElementComponent  -->
<g id="node17" class="node">
<title>MenuBarElementComponent </title>
<polygon fill="#fb8072" stroke="black" points="1833.36,-252 1648.64,-252 1648.64,-216 1833.36,-216 1833.36,-252"/>
<text text-anchor="middle" x="1741" y="-229.8" font-family="Times,serif" font-size="14.00">MenuBarElementComponent </text>
</g>
<!-- UiElementsModule&#45;&gt;MenuBarElementComponent  -->
<g id="edge16" class="edge">
<title>UiElementsModule&#45;&gt;MenuBarElementComponent </title>
<path fill="none" stroke="black" stroke-dasharray="5,2" d="M1218.82,-179C1363.6,-179 1708.36,-179 1708.36,-179 1708.36,-179 1708.36,-205.99 1708.36,-205.99"/>
<polygon fill="black" stroke="black" points="1704.86,-205.99 1708.36,-215.99 1711.86,-205.99 1704.86,-205.99"/>
</g>
<!-- MenuButtonElementComponent  -->
<g id="node18" class="node">
<title>MenuButtonElementComponent </title>
<polygon fill="#fb8072" stroke="black" points="1631.26,-252 1428.74,-252 1428.74,-216 1631.26,-216 1631.26,-252"/>
<text text-anchor="middle" x="1530" y="-229.8" font-family="Times,serif" font-size="14.00">MenuButtonElementComponent </text>
</g>
<!-- UiElementsModule&#45;&gt;MenuButtonElementComponent  -->
<g id="edge17" class="edge">
<title>UiElementsModule&#45;&gt;MenuButtonElementComponent </title>
<path fill="none" stroke="black" stroke-dasharray="5,2" d="M1218.73,-182C1316.94,-182 1495.87,-182 1495.87,-182 1495.87,-182 1495.87,-205.81 1495.87,-205.81"/>
<polygon fill="black" stroke="black" points="1492.37,-205.81 1495.87,-215.81 1499.37,-205.81 1492.37,-205.81"/>
</g>
<!-- MenuElementComponent  -->
<g id="node19" class="node">
<title>MenuElementComponent </title>
<polygon fill="#fb8072" stroke="black" points="1411.15,-252 1246.85,-252 1246.85,-216 1411.15,-216 1411.15,-252"/>
<text text-anchor="middle" x="1329" y="-229.8" font-family="Times,serif" font-size="14.00">MenuElementComponent </text>
</g>
<!-- UiElementsModule&#45;&gt;MenuElementComponent  -->
<g id="edge18" class="edge">
<title>UiElementsModule&#45;&gt;MenuElementComponent </title>
<path fill="none" stroke="black" stroke-dasharray="5,2" d="M1218.68,-185C1277.87,-185 1357.61,-185 1357.61,-185 1357.61,-185 1357.61,-205.75 1357.61,-205.75"/>
<polygon fill="black" stroke="black" points="1354.11,-205.75 1357.61,-215.75 1361.11,-205.75 1354.11,-205.75"/>
</g>
<!-- NavBarElementComponent  -->
<g id="node20" class="node">
<title>NavBarElementComponent </title>
<polygon fill="#fb8072" stroke="black" points="1228.52,-252 1053.48,-252 1053.48,-216 1228.52,-216 1228.52,-252"/>
<text text-anchor="middle" x="1141" y="-229.8" font-family="Times,serif" font-size="14.00">NavBarElementComponent </text>
</g>
<!-- UiElementsModule&#45;&gt;NavBarElementComponent  -->
<g id="edge19" class="edge">
<title>UiElementsModule&#45;&gt;NavBarElementComponent </title>
<path fill="none" stroke="black" stroke-dasharray="5,2" d="M1156,-187.11C1156,-187.11 1156,-205.99 1156,-205.99"/>
<polygon fill="black" stroke="black" points="1152.5,-205.99 1156,-215.99 1159.5,-205.99 1152.5,-205.99"/>
</g>
<!-- PollenListElementComponent  -->
<g id="node21" class="node">
<title>PollenListElementComponent </title>
<polygon fill="#fb8072" stroke="black" points="1035.54,-252 846.46,-252 846.46,-216 1035.54,-216 1035.54,-252"/>
<text text-anchor="middle" x="941" y="-229.8" font-family="Times,serif" font-size="14.00">PollenListElementComponent </text>
</g>
<!-- UiElementsModule&#45;&gt;PollenListElementComponent  -->
<g id="edge20" class="edge">
<title>UiElementsModule&#45;&gt;PollenListElementComponent </title>
<path fill="none" stroke="black" stroke-dasharray="5,2" d="M1093.11,-184C1031.36,-184 946.38,-184 946.38,-184 946.38,-184 946.38,-205.95 946.38,-205.95"/>
<polygon fill="black" stroke="black" points="942.88,-205.95 946.38,-215.95 949.88,-205.95 942.88,-205.95"/>
</g>
<!-- PollenTagElementComponent  -->
<g id="node22" class="node">
<title>PollenTagElementComponent </title>
<polygon fill="#fb8072" stroke="black" points="828.53,-252 639.47,-252 639.47,-216 828.53,-216 828.53,-252"/>
<text text-anchor="middle" x="734" y="-229.8" font-family="Times,serif" font-size="14.00">PollenTagElementComponent </text>
</g>
<!-- UiElementsModule&#45;&gt;PollenTagElementComponent  -->
<g id="edge21" class="edge">
<title>UiElementsModule&#45;&gt;PollenTagElementComponent </title>
<path fill="none" stroke="black" stroke-dasharray="5,2" d="M1092.95,-181C976.82,-181 740.88,-181 740.88,-181 740.88,-181 740.88,-205.76 740.88,-205.76"/>
<polygon fill="black" stroke="black" points="737.38,-205.76 740.88,-215.76 744.38,-205.76 737.38,-205.76"/>
</g>
<!-- ProgressChartElementComponent  -->
<g id="node23" class="node">
<title>ProgressChartElementComponent </title>
<polygon fill="#fb8072" stroke="black" points="621.3,-252 410.7,-252 410.7,-216 621.3,-216 621.3,-252"/>
<text text-anchor="middle" x="516" y="-229.8" font-family="Times,serif" font-size="14.00">ProgressChartElementComponent </text>
</g>
<!-- UiElementsModule&#45;&gt;ProgressChartElementComponent  -->
<g id="edge22" class="edge">
<title>UiElementsModule&#45;&gt;ProgressChartElementComponent </title>
<path fill="none" stroke="black" stroke-dasharray="5,2" d="M1093.18,-178C933.54,-178 524.88,-178 524.88,-178 524.88,-178 524.88,-205.97 524.88,-205.97"/>
<polygon fill="black" stroke="black" points="521.38,-205.97 524.88,-215.97 528.38,-205.97 521.38,-205.97"/>
</g>
<!-- SliderElementComponent  -->
<g id="node24" class="node">
<title>SliderElementComponent </title>
<polygon fill="#fb8072" stroke="black" points="392.43,-252 227.57,-252 227.57,-216 392.43,-216 392.43,-252"/>
<text text-anchor="middle" x="310" y="-229.8" font-family="Times,serif" font-size="14.00">SliderElementComponent </text>
</g>
<!-- UiElementsModule&#45;&gt;SliderElementComponent  -->
<g id="edge23" class="edge">
<title>UiElementsModule&#45;&gt;SliderElementComponent </title>
<path fill="none" stroke="black" stroke-dasharray="5,2" d="M1093.23,-174C899.01,-174 320.88,-174 320.88,-174 320.88,-174 320.88,-206 320.88,-206"/>
<polygon fill="black" stroke="black" points="317.38,-206 320.88,-216 324.38,-206 317.38,-206"/>
</g>
<!-- TtsPlayerElementComponent  -->
<g id="node25" class="node">
<title>TtsPlayerElementComponent </title>
<polygon fill="#fb8072" stroke="black" points="209.64,-252 24.36,-252 24.36,-216 209.64,-216 209.64,-252"/>
<text text-anchor="middle" x="117" y="-229.8" font-family="Times,serif" font-size="14.00">TtsPlayerElementComponent </text>
</g>
<!-- UiElementsModule&#45;&gt;TtsPlayerElementComponent  -->
<g id="edge24" class="edge">
<title>UiElementsModule&#45;&gt;TtsPlayerElementComponent </title>
<path fill="none" stroke="black" stroke-dasharray="5,2" d="M1093.33,-171C870.43,-171 129.38,-171 129.38,-171 129.38,-171 129.38,-205.78 129.38,-205.78"/>
<polygon fill="black" stroke="black" points="125.88,-205.78 129.38,-215.78 132.88,-205.78 125.88,-205.78"/>
</g>
</g>
</svg>
