<?xml version="1.0" encoding="UTF-8" standalone="no"?>
<!DOCTYPE svg PUBLIC "-//W3C//DTD SVG 1.1//EN"
 "http://www.w3.org/Graphics/SVG/1.1/DTD/svg11.dtd">
<!-- Generated by graphviz version 2.47.0 (20210316.0004)
 -->
<!-- Title: dependencies Pages: 1 -->
<svg width="692pt" height="284pt"
 viewBox="0.00 0.00 692.00 284.00" xmlns="http://www.w3.org/2000/svg" xmlns:xlink="http://www.w3.org/1999/xlink">
<g id="graph0" class="graph" transform="scale(1 1) rotate(0) translate(4 280)">
<title>dependencies</title>
<polygon fill="white" stroke="transparent" points="-4,4 -4,-280 688,-280 688,4 -4,4"/>
<text text-anchor="start" x="321.01" y="-42.4" font-family="sans-serif" font-weight="bold" font-size="14.00">Legend</text>
<polygon fill="#ffffb3" stroke="transparent" points="108,-10 108,-30 128,-30 128,-10 108,-10"/>
<text text-anchor="start" x="131.63" y="-15.4" font-family="sans-serif" font-size="14.00"> &#160;Declarations</text>
<polygon fill="#8dd3c7" stroke="transparent" points="221,-10 221,-30 241,-30 241,-10 221,-10"/>
<text text-anchor="start" x="244.73" y="-15.4" font-family="sans-serif" font-size="14.00"> &#160;Module</text>
<polygon fill="#80b1d3" stroke="transparent" points="307,-10 307,-30 327,-30 327,-10 307,-10"/>
<text text-anchor="start" x="330.78" y="-15.4" font-family="sans-serif" font-size="14.00"> &#160;Bootstrap</text>
<polygon fill="#fdb462" stroke="transparent" points="404,-10 404,-30 424,-30 424,-10 404,-10"/>
<text text-anchor="start" x="427.67" y="-15.4" font-family="sans-serif" font-size="14.00"> &#160;Providers</text>
<polygon fill="#fb8072" stroke="transparent" points="500,-10 500,-30 520,-30 520,-10 500,-10"/>
<text text-anchor="start" x="523.73" y="-15.4" font-family="sans-serif" font-size="14.00"> &#160;Exports</text>
<g id="clust1" class="cluster">
<title>cluster_AppModule</title>
<polygon fill="none" stroke="black" stroke-dasharray="1,5" points="8,-70 8,-268 676,-268 676,-70 8,-70"/>
</g>
<g id="clust2" class="cluster">
<title>cluster_AppModule_declarations</title>
<polygon fill="none" stroke="black" points="546,-78 546,-130 668,-130 668,-78 546,-78"/>
</g>
<g id="clust4" class="cluster">
<title>cluster_AppModule_imports</title>
<polygon fill="none" stroke="black" points="16,-78 16,-130 538,-130 538,-78 16,-78"/>
</g>
<g id="clust6" class="cluster">
<title>cluster_AppModule_bootstrap</title>
<polygon fill="none" stroke="black" points="270,-208 270,-260 394,-260 394,-208 270,-208"/>
</g>
<!-- AppComponent -->
<g id="node1" class="node">
<title>AppComponent</title>
<polygon fill="#ffffb3" stroke="black" points="659.94,-122 554.06,-122 554.06,-86 659.94,-86 659.94,-122"/>
<text text-anchor="middle" x="607" y="-99.8" font-family="Times,serif" font-size="14.00">AppComponent</text>
</g>
<!-- AppModule -->
<g id="node2" class="node">
<title>AppModule</title>
<polygon fill="#8dd3c7" stroke="black" points="373.66,-187 370.66,-191 349.66,-191 346.66,-187 290.34,-187 290.34,-151 373.66,-151 373.66,-187"/>
<text text-anchor="middle" x="332" y="-164.8" font-family="Times,serif" font-size="14.00">AppModule</text>
</g>
<!-- AppComponent&#45;&gt;AppModule -->
<g id="edge1" class="edge">
<title>AppComponent&#45;&gt;AppModule</title>
<path fill="none" stroke="black" d="M607,-122.28C607,-143.32 607,-175 607,-175 607,-175 383.77,-175 383.77,-175"/>
<polygon fill="black" stroke="black" points="383.77,-171.5 373.77,-175 383.77,-178.5 383.77,-171.5"/>
</g>
<!-- AppComponent  -->
<g id="node7" class="node">
<title>AppComponent </title>
<polygon fill="#80b1d3" stroke="black" points="386.44,-252 277.56,-252 277.56,-216 386.44,-216 386.44,-252"/>
<text text-anchor="middle" x="332" y="-229.8" font-family="Times,serif" font-size="14.00">AppComponent </text>
</g>
<!-- AppModule&#45;&gt;AppComponent  -->
<g id="edge6" class="edge">
<title>AppModule&#45;&gt;AppComponent </title>
<path fill="none" stroke="black" stroke-dasharray="1,5" d="M332,-187.11C332,-187.11 332,-205.99 332,-205.99"/>
<polygon fill="black" stroke="black" points="328.5,-205.99 332,-215.99 335.5,-205.99 328.5,-205.99"/>
</g>
<!-- AppRoutingModule -->
<g id="node3" class="node">
<title>AppRoutingModule</title>
<polygon fill="#8dd3c7" stroke="black" points="530.27,-122 527.27,-126 506.27,-126 503.27,-122 401.73,-122 401.73,-86 530.27,-86 530.27,-122"/>
<text text-anchor="middle" x="466" y="-99.8" font-family="Times,serif" font-size="14.00">AppRoutingModule</text>
</g>
<!-- AppRoutingModule&#45;&gt;AppModule -->
<g id="edge2" class="edge">
<title>AppRoutingModule&#45;&gt;AppModule</title>
<path fill="none" stroke="black" d="M466,-122.02C466,-139.37 466,-163 466,-163 466,-163 383.66,-163 383.66,-163"/>
<polygon fill="black" stroke="black" points="383.66,-159.5 373.66,-163 383.66,-166.5 383.66,-159.5"/>
</g>
<!-- ScreensModule -->
<g id="node4" class="node">
<title>ScreensModule</title>
<polygon fill="#8dd3c7" stroke="black" points="383.58,-122 380.58,-126 359.58,-126 356.58,-122 280.42,-122 280.42,-86 383.58,-86 383.58,-122"/>
<text text-anchor="middle" x="332" y="-99.8" font-family="Times,serif" font-size="14.00">ScreensModule</text>
</g>
<!-- ScreensModule&#45;&gt;AppModule -->
<g id="edge3" class="edge">
<title>ScreensModule&#45;&gt;AppModule</title>
<path fill="none" stroke="black" d="M332,-122.11C332,-122.11 332,-140.99 332,-140.99"/>
<polygon fill="black" stroke="black" points="328.5,-140.99 332,-150.99 335.5,-140.99 328.5,-140.99"/>
</g>
<!-- UiElementsModule -->
<g id="node5" class="node">
<title>UiElementsModule</title>
<polygon fill="#8dd3c7" stroke="black" points="262.65,-122 259.65,-126 238.65,-126 235.65,-122 137.35,-122 137.35,-86 262.65,-86 262.65,-122"/>
<text text-anchor="middle" x="200" y="-99.8" font-family="Times,serif" font-size="14.00">UiElementsModule</text>
</g>
<!-- UiElementsModule&#45;&gt;AppModule -->
<g id="edge4" class="edge">
<title>UiElementsModule&#45;&gt;AppModule</title>
<path fill="none" stroke="black" d="M200,-122.02C200,-139.37 200,-163 200,-163 200,-163 280.23,-163 280.23,-163"/>
<polygon fill="black" stroke="black" points="280.23,-166.5 290.23,-163 280.23,-159.5 280.23,-166.5"/>
</g>
<!-- ViewsModule -->
<g id="node6" class="node">
<title>ViewsModule</title>
<polygon fill="#8dd3c7" stroke="black" points="119.81,-122 116.81,-126 95.81,-126 92.81,-122 24.19,-122 24.19,-86 119.81,-86 119.81,-122"/>
<text text-anchor="middle" x="72" y="-99.8" font-family="Times,serif" font-size="14.00">ViewsModule</text>
</g>
<!-- ViewsModule&#45;&gt;AppModule -->
<g id="edge5" class="edge">
<title>ViewsModule&#45;&gt;AppModule</title>
<path fill="none" stroke="black" d="M72,-122.28C72,-143.32 72,-175 72,-175 72,-175 280.23,-175 280.23,-175"/>
<polygon fill="black" stroke="black" points="280.23,-178.5 290.23,-175 280.23,-171.5 280.23,-178.5"/>
</g>
</g>
</svg>
