<?xml version="1.0" encoding="UTF-8" standalone="no"?>
<!DOCTYPE svg PUBLIC "-//W3C//DTD SVG 1.1//EN"
 "http://www.w3.org/Graphics/SVG/1.1/DTD/svg11.dtd">
<!-- Generated by graphviz version 2.47.0 (20210316.0004)
 -->
<!-- Title: dependencies Pages: 1 -->
<svg width="4953pt" height="284pt"
 viewBox="0.00 0.00 4953.00 284.00" xmlns="http://www.w3.org/2000/svg" xmlns:xlink="http://www.w3.org/1999/xlink">
<g id="graph0" class="graph" transform="scale(1 1) rotate(0) translate(4 280)">
<title>dependencies</title>
<polygon fill="white" stroke="transparent" points="-4,4 -4,-280 4949,-280 4949,4 -4,4"/>
<text text-anchor="start" x="2451.51" y="-42.4" font-family="sans-serif" font-weight="bold" font-size="14.00">Legend</text>
<polygon fill="#ffffb3" stroke="transparent" points="2238.5,-10 2238.5,-30 2258.5,-30 2258.5,-10 2238.5,-10"/>
<text text-anchor="start" x="2262.13" y="-15.4" font-family="sans-serif" font-size="14.00"> &#160;Declarations</text>
<polygon fill="#8dd3c7" stroke="transparent" points="2351.5,-10 2351.5,-30 2371.5,-30 2371.5,-10 2351.5,-10"/>
<text text-anchor="start" x="2375.23" y="-15.4" font-family="sans-serif" font-size="14.00"> &#160;Module</text>
<polygon fill="#80b1d3" stroke="transparent" points="2437.5,-10 2437.5,-30 2457.5,-30 2457.5,-10 2437.5,-10"/>
<text text-anchor="start" x="2461.28" y="-15.4" font-family="sans-serif" font-size="14.00"> &#160;Bootstrap</text>
<polygon fill="#fdb462" stroke="transparent" points="2534.5,-10 2534.5,-30 2554.5,-30 2554.5,-10 2534.5,-10"/>
<text text-anchor="start" x="2558.17" y="-15.4" font-family="sans-serif" font-size="14.00"> &#160;Providers</text>
<polygon fill="#fb8072" stroke="transparent" points="2630.5,-10 2630.5,-30 2650.5,-30 2650.5,-10 2630.5,-10"/>
<text text-anchor="start" x="2654.23" y="-15.4" font-family="sans-serif" font-size="14.00"> &#160;Exports</text>
<g id="clust1" class="cluster">
<title>cluster_ViewsModule</title>
<polygon fill="none" stroke="black" stroke-dasharray="1,5" points="8,-70 8,-268 4937,-268 4937,-70 8,-70"/>
</g>
<g id="clust25" class="cluster">
<title>cluster_ViewsModule_imports</title>
<polygon fill="none" stroke="black" points="4787,-78 4787,-130 4929,-130 4929,-78 4787,-78"/>
</g>
<g id="clust2" class="cluster">
<title>cluster_ViewsModule_declarations</title>
<polygon fill="none" stroke="black" points="16,-78 16,-130 4779,-130 4779,-78 16,-78"/>
</g>
<g id="clust26" class="cluster">
<title>cluster_ViewsModule_exports</title>
<polygon fill="none" stroke="black" points="727,-208 727,-260 4215,-260 4215,-208 727,-208"/>
</g>
<!-- ApparentTemperatureTileViewComponent -->
<g id="node1" class="node">
<title>ApparentTemperatureTileViewComponent</title>
<polygon fill="#ffffb3" stroke="black" points="4770.8,-122 4513.2,-122 4513.2,-86 4770.8,-86 4770.8,-122"/>
<text text-anchor="middle" x="4642" y="-99.8" font-family="Times,serif" font-size="14.00">ApparentTemperatureTileViewComponent</text>
</g>
<!-- ViewsModule -->
<g id="node23" class="node">
<title>ViewsModule</title>
<polygon fill="#8dd3c7" stroke="black" points="2557.81,-187 2554.81,-191 2533.81,-191 2530.81,-187 2462.19,-187 2462.19,-151 2557.81,-151 2557.81,-187"/>
<text text-anchor="middle" x="2510" y="-164.8" font-family="Times,serif" font-size="14.00">ViewsModule</text>
</g>
<!-- ApparentTemperatureTileViewComponent&#45;&gt;ViewsModule -->
<g id="edge1" class="edge">
<title>ApparentTemperatureTileViewComponent&#45;&gt;ViewsModule</title>
<path fill="none" stroke="black" d="M4642,-122.03C4642,-141.58 4642,-170 4642,-170 4642,-170 2567.77,-170 2567.77,-170"/>
<polygon fill="black" stroke="black" points="2567.77,-166.5 2557.77,-170 2567.77,-173.5 2567.77,-166.5"/>
</g>
<!-- ConfigurationTilePopUpDialogView -->
<g id="node2" class="node">
<title>ConfigurationTilePopUpDialogView</title>
<polygon fill="#ffffb3" stroke="black" points="4495.4,-122 4270.6,-122 4270.6,-86 4495.4,-86 4495.4,-122"/>
<text text-anchor="middle" x="4383" y="-99.8" font-family="Times,serif" font-size="14.00">ConfigurationTilePopUpDialogView</text>
</g>
<!-- ConfigurationTilePopUpDialogView&#45;&gt;ViewsModule -->
<g id="edge2" class="edge">
<title>ConfigurationTilePopUpDialogView&#45;&gt;ViewsModule</title>
<path fill="none" stroke="black" d="M4383,-122.11C4383,-141.34 4383,-169 4383,-169 4383,-169 2567.71,-169 2567.71,-169"/>
<polygon fill="black" stroke="black" points="2567.71,-165.5 2557.71,-169 2567.71,-172.5 2567.71,-165.5"/>
</g>
<!-- ConfigurationTileViewComponent -->
<g id="node3" class="node">
<title>ConfigurationTileViewComponent</title>
<polygon fill="#ffffb3" stroke="black" points="4252.24,-122 4039.76,-122 4039.76,-86 4252.24,-86 4252.24,-122"/>
<text text-anchor="middle" x="4146" y="-99.8" font-family="Times,serif" font-size="14.00">ConfigurationTileViewComponent</text>
</g>
<!-- ConfigurationTileViewComponent&#45;&gt;ViewsModule -->
<g id="edge3" class="edge">
<title>ConfigurationTileViewComponent&#45;&gt;ViewsModule</title>
<path fill="none" stroke="black" d="M4123.14,-122.22C4123.14,-140.83 4123.14,-167 4123.14,-167 4123.14,-167 2567.84,-167 2567.84,-167"/>
<polygon fill="black" stroke="black" points="2567.84,-163.5 2557.84,-167 2567.84,-170.5 2567.84,-163.5"/>
</g>
<!-- ConfigurationViewComponent -->
<g id="node4" class="node">
<title>ConfigurationViewComponent</title>
<polygon fill="#ffffb3" stroke="black" points="4022.2,-122 3831.8,-122 3831.8,-86 4022.2,-86 4022.2,-122"/>
<text text-anchor="middle" x="3927" y="-99.8" font-family="Times,serif" font-size="14.00">ConfigurationViewComponent</text>
</g>
<!-- ConfigurationViewComponent&#45;&gt;ViewsModule -->
<g id="edge4" class="edge">
<title>ConfigurationViewComponent&#45;&gt;ViewsModule</title>
<path fill="none" stroke="black" d="M3879.65,-122.3C3879.65,-140.27 3879.65,-165 3879.65,-165 3879.65,-165 2567.94,-165 2567.94,-165"/>
<polygon fill="black" stroke="black" points="2567.94,-161.5 2557.94,-165 2567.94,-168.5 2567.94,-161.5"/>
</g>
<!-- ForecastDetailViewComponent -->
<g id="node5" class="node">
<title>ForecastDetailViewComponent</title>
<polygon fill="#ffffb3" stroke="black" points="3813.78,-122 3620.22,-122 3620.22,-86 3813.78,-86 3813.78,-122"/>
<text text-anchor="middle" x="3717" y="-99.8" font-family="Times,serif" font-size="14.00">ForecastDetailViewComponent</text>
</g>
<!-- ForecastDetailViewComponent&#45;&gt;ViewsModule -->
<g id="edge5" class="edge">
<title>ForecastDetailViewComponent&#45;&gt;ViewsModule</title>
<path fill="none" stroke="black" d="M3666.46,-122.02C3666.46,-139.37 3666.46,-163 3666.46,-163 3666.46,-163 2567.85,-163 2567.85,-163"/>
<polygon fill="black" stroke="black" points="2567.85,-159.5 2557.85,-163 2567.85,-166.5 2567.85,-159.5"/>
</g>
<!-- ForecastTileViewComponent -->
<g id="node6" class="node">
<title>ForecastTileViewComponent</title>
<polygon fill="#ffffb3" stroke="black" points="3602.62,-122 3421.38,-122 3421.38,-86 3602.62,-86 3602.62,-122"/>
<text text-anchor="middle" x="3512" y="-99.8" font-family="Times,serif" font-size="14.00">ForecastTileViewComponent</text>
</g>
<!-- ForecastTileViewComponent&#45;&gt;ViewsModule -->
<g id="edge6" class="edge">
<title>ForecastTileViewComponent&#45;&gt;ViewsModule</title>
<path fill="none" stroke="black" d="M3465.43,-122.04C3465.43,-138.73 3465.43,-161 3465.43,-161 3465.43,-161 2567.71,-161 2567.71,-161"/>
<polygon fill="black" stroke="black" points="2567.71,-157.5 2557.71,-161 2567.71,-164.5 2567.71,-157.5"/>
</g>
<!-- HistoryDetailViewComponent -->
<g id="node7" class="node">
<title>HistoryDetailViewComponent</title>
<polygon fill="#ffffb3" stroke="black" points="3402.85,-122 3215.15,-122 3215.15,-86 3402.85,-86 3402.85,-122"/>
<text text-anchor="middle" x="3309" y="-99.8" font-family="Times,serif" font-size="14.00">HistoryDetailViewComponent</text>
</g>
<!-- HistoryDetailViewComponent&#45;&gt;ViewsModule -->
<g id="edge7" class="edge">
<title>HistoryDetailViewComponent&#45;&gt;ViewsModule</title>
<path fill="none" stroke="black" d="M3257.46,-122.01C3257.46,-138.05 3257.46,-159 3257.46,-159 3257.46,-159 2567.89,-159 2567.89,-159"/>
<polygon fill="black" stroke="black" points="2567.89,-155.5 2557.89,-159 2567.89,-162.5 2567.89,-155.5"/>
</g>
<!-- HistoryTileViewComponent -->
<g id="node8" class="node">
<title>HistoryTileViewComponent</title>
<polygon fill="#ffffb3" stroke="black" points="3197.19,-122 3020.81,-122 3020.81,-86 3197.19,-86 3197.19,-122"/>
<text text-anchor="middle" x="3109" y="-99.8" font-family="Times,serif" font-size="14.00">HistoryTileViewComponent</text>
</g>
<!-- HistoryTileViewComponent&#45;&gt;ViewsModule -->
<g id="edge8" class="edge">
<title>HistoryTileViewComponent&#45;&gt;ViewsModule</title>
<path fill="none" stroke="black" d="M3061.29,-122.24C3061.29,-137.57 3061.29,-157 3061.29,-157 3061.29,-157 2567.96,-157 2567.96,-157"/>
<polygon fill="black" stroke="black" points="2567.96,-153.5 2557.96,-157 2567.96,-160.5 2567.96,-153.5"/>
</g>
<!-- HumidityTileViewComponent -->
<g id="node9" class="node">
<title>HumidityTileViewComponent</title>
<polygon fill="#ffffb3" stroke="black" points="3002.87,-122 2815.13,-122 2815.13,-86 3002.87,-86 3002.87,-122"/>
<text text-anchor="middle" x="2909" y="-99.8" font-family="Times,serif" font-size="14.00">HumidityTileViewComponent</text>
</g>
<!-- HumidityTileViewComponent&#45;&gt;ViewsModule -->
<g id="edge9" class="edge">
<title>HumidityTileViewComponent&#45;&gt;ViewsModule</title>
<path fill="none" stroke="black" d="M2853.7,-122.12C2853.7,-136.78 2853.7,-155 2853.7,-155 2853.7,-155 2567.79,-155 2567.79,-155"/>
<polygon fill="black" stroke="black" points="2567.79,-151.5 2557.79,-155 2567.79,-158.5 2567.79,-151.5"/>
</g>
<!-- IndoorDetailViewComponent -->
<g id="node10" class="node">
<title>IndoorDetailViewComponent</title>
<polygon fill="#ffffb3" stroke="black" points="2796.68,-122 2613.32,-122 2613.32,-86 2796.68,-86 2796.68,-122"/>
<text text-anchor="middle" x="2705" y="-99.8" font-family="Times,serif" font-size="14.00">IndoorDetailViewComponent</text>
</g>
<!-- IndoorDetailViewComponent&#45;&gt;ViewsModule -->
<g id="edge10" class="edge">
<title>IndoorDetailViewComponent&#45;&gt;ViewsModule</title>
<path fill="none" stroke="black" d="M2650.46,-122.25C2650.46,-136.18 2650.46,-153 2650.46,-153 2650.46,-153 2567.95,-153 2567.95,-153"/>
<polygon fill="black" stroke="black" points="2567.95,-149.5 2557.95,-153 2567.95,-156.5 2567.95,-149.5"/>
</g>
<!-- IndoorTileViewComponent -->
<g id="node11" class="node">
<title>IndoorTileViewComponent</title>
<polygon fill="#ffffb3" stroke="black" points="2595.52,-122 2424.48,-122 2424.48,-86 2595.52,-86 2595.52,-122"/>
<text text-anchor="middle" x="2510" y="-99.8" font-family="Times,serif" font-size="14.00">IndoorTileViewComponent</text>
</g>
<!-- IndoorTileViewComponent&#45;&gt;ViewsModule -->
<g id="edge11" class="edge">
<title>IndoorTileViewComponent&#45;&gt;ViewsModule</title>
<path fill="none" stroke="black" d="M2510,-122.11C2510,-122.11 2510,-140.99 2510,-140.99"/>
<polygon fill="black" stroke="black" points="2506.5,-140.99 2510,-150.99 2513.5,-140.99 2506.5,-140.99"/>
</g>
<!-- LoginViewComponent -->
<g id="node12" class="node">
<title>LoginViewComponent</title>
<polygon fill="#ffffb3" stroke="black" points="2406.59,-122 2261.41,-122 2261.41,-86 2406.59,-86 2406.59,-122"/>
<text text-anchor="middle" x="2334" y="-99.8" font-family="Times,serif" font-size="14.00">LoginViewComponent</text>
</g>
<!-- LoginViewComponent&#45;&gt;ViewsModule -->
<g id="edge12" class="edge">
<title>LoginViewComponent&#45;&gt;ViewsModule</title>
<path fill="none" stroke="black" d="M2376.12,-122.25C2376.12,-136.18 2376.12,-153 2376.12,-153 2376.12,-153 2452.05,-153 2452.05,-153"/>
<polygon fill="black" stroke="black" points="2452.05,-156.5 2462.05,-153 2452.05,-149.5 2452.05,-156.5"/>
</g>
<!-- OpenAPELoginTileViewComponent -->
<g id="node13" class="node">
<title>OpenAPELoginTileViewComponent</title>
<polygon fill="#ffffb3" stroke="black" points="2243.41,-122 2018.59,-122 2018.59,-86 2243.41,-86 2243.41,-122"/>
<text text-anchor="middle" x="2131" y="-99.8" font-family="Times,serif" font-size="14.00">OpenAPELoginTileViewComponent</text>
</g>
<!-- OpenAPELoginTileViewComponent&#45;&gt;ViewsModule -->
<g id="edge13" class="edge">
<title>OpenAPELoginTileViewComponent&#45;&gt;ViewsModule</title>
<path fill="none" stroke="black" d="M2163.74,-122.12C2163.74,-136.78 2163.74,-155 2163.74,-155 2163.74,-155 2452.22,-155 2452.22,-155"/>
<polygon fill="black" stroke="black" points="2452.22,-158.5 2462.22,-155 2452.22,-151.5 2452.22,-158.5"/>
</g>
<!-- OutdoorWeatherDetailViewComponent -->
<g id="node14" class="node">
<title>OutdoorWeatherDetailViewComponent</title>
<polygon fill="#ffffb3" stroke="black" points="2000.93,-122 1761.07,-122 1761.07,-86 2000.93,-86 2000.93,-122"/>
<text text-anchor="middle" x="1881" y="-99.8" font-family="Times,serif" font-size="14.00">OutdoorWeatherDetailViewComponent</text>
</g>
<!-- OutdoorWeatherDetailViewComponent&#45;&gt;ViewsModule -->
<g id="edge14" class="edge">
<title>OutdoorWeatherDetailViewComponent&#45;&gt;ViewsModule</title>
<path fill="none" stroke="black" d="M1929.18,-122.24C1929.18,-137.57 1929.18,-157 1929.18,-157 1929.18,-157 2451.97,-157 2451.97,-157"/>
<polygon fill="black" stroke="black" points="2451.97,-160.5 2461.97,-157 2451.97,-153.5 2451.97,-160.5"/>
</g>
<!-- OutdoorWeatherViewComponent -->
<g id="node15" class="node">
<title>OutdoorWeatherViewComponent</title>
<polygon fill="#ffffb3" stroke="black" points="1742.72,-122 1537.28,-122 1537.28,-86 1742.72,-86 1742.72,-122"/>
<text text-anchor="middle" x="1640" y="-99.8" font-family="Times,serif" font-size="14.00">OutdoorWeatherViewComponent</text>
</g>
<!-- OutdoorWeatherViewComponent&#45;&gt;ViewsModule -->
<g id="edge15" class="edge">
<title>OutdoorWeatherViewComponent&#45;&gt;ViewsModule</title>
<path fill="none" stroke="black" d="M1667.79,-122.01C1667.79,-138.05 1667.79,-159 1667.79,-159 1667.79,-159 2452.31,-159 2452.31,-159"/>
<polygon fill="black" stroke="black" points="2452.31,-162.5 2462.31,-159 2452.31,-155.5 2452.31,-162.5"/>
</g>
<!-- PersonalizationSettingsViewComponent -->
<g id="node16" class="node">
<title>PersonalizationSettingsViewComponent</title>
<polygon fill="#ffffb3" stroke="black" points="1519.57,-122 1276.43,-122 1276.43,-86 1519.57,-86 1519.57,-122"/>
<text text-anchor="middle" x="1398" y="-99.8" font-family="Times,serif" font-size="14.00">PersonalizationSettingsViewComponent</text>
</g>
<!-- PersonalizationSettingsViewComponent&#45;&gt;ViewsModule -->
<g id="edge16" class="edge">
<title>PersonalizationSettingsViewComponent&#45;&gt;ViewsModule</title>
<path fill="none" stroke="black" d="M1443.35,-122.04C1443.35,-138.73 1443.35,-161 1443.35,-161 1443.35,-161 2452.1,-161 2452.1,-161"/>
<polygon fill="black" stroke="black" points="2452.1,-164.5 2462.1,-161 2452.1,-157.5 2452.1,-164.5"/>
</g>
<!-- PersonalizationViewComponent -->
<g id="node17" class="node">
<title>PersonalizationViewComponent</title>
<polygon fill="#ffffb3" stroke="black" points="1257.96,-122 1060.04,-122 1060.04,-86 1257.96,-86 1257.96,-122"/>
<text text-anchor="middle" x="1159" y="-99.8" font-family="Times,serif" font-size="14.00">PersonalizationViewComponent</text>
</g>
<!-- PersonalizationViewComponent&#45;&gt;ViewsModule -->
<g id="edge17" class="edge">
<title>PersonalizationViewComponent&#45;&gt;ViewsModule</title>
<path fill="none" stroke="black" d="M1204.39,-122.02C1204.39,-139.37 1204.39,-163 1204.39,-163 1204.39,-163 2451.98,-163 2451.98,-163"/>
<polygon fill="black" stroke="black" points="2451.98,-166.5 2461.98,-163 2451.98,-159.5 2451.98,-166.5"/>
</g>
<!-- PollenflugDetailViewComponent -->
<g id="node18" class="node">
<title>PollenflugDetailViewComponent</title>
<polygon fill="#ffffb3" stroke="black" points="1042.19,-122 837.81,-122 837.81,-86 1042.19,-86 1042.19,-122"/>
<text text-anchor="middle" x="940" y="-99.8" font-family="Times,serif" font-size="14.00">PollenflugDetailViewComponent</text>
</g>
<!-- PollenflugDetailViewComponent&#45;&gt;ViewsModule -->
<g id="edge18" class="edge">
<title>PollenflugDetailViewComponent&#45;&gt;ViewsModule</title>
<path fill="none" stroke="black" d="M989.54,-122.3C989.54,-140.27 989.54,-165 989.54,-165 989.54,-165 2451.98,-165 2451.98,-165"/>
<polygon fill="black" stroke="black" points="2451.98,-168.5 2461.98,-165 2451.98,-161.5 2451.98,-168.5"/>
</g>
<!-- PollenflugSmallTileComponent -->
<g id="node19" class="node">
<title>PollenflugSmallTileComponent</title>
<polygon fill="#ffffb3" stroke="black" points="819.38,-122 624.62,-122 624.62,-86 819.38,-86 819.38,-122"/>
<text text-anchor="middle" x="722" y="-99.8" font-family="Times,serif" font-size="14.00">PollenflugSmallTileComponent</text>
</g>
<!-- PollenflugSmallTileComponent&#45;&gt;ViewsModule -->
<g id="edge19" class="edge">
<title>PollenflugSmallTileComponent&#45;&gt;ViewsModule</title>
<path fill="none" stroke="black" d="M777.32,-122.22C777.32,-140.83 777.32,-167 777.32,-167 777.32,-167 2452.3,-167 2452.3,-167"/>
<polygon fill="black" stroke="black" points="2452.3,-170.5 2462.3,-167 2452.3,-163.5 2452.3,-170.5"/>
</g>
<!-- PollenflugTileViewComponent -->
<g id="node20" class="node">
<title>PollenflugTileViewComponent</title>
<polygon fill="#ffffb3" stroke="black" points="606.03,-122 413.97,-122 413.97,-86 606.03,-86 606.03,-122"/>
<text text-anchor="middle" x="510" y="-99.8" font-family="Times,serif" font-size="14.00">PollenflugTileViewComponent</text>
</g>
<!-- PollenflugTileViewComponent&#45;&gt;ViewsModule -->
<g id="edge20" class="edge">
<title>PollenflugTileViewComponent&#45;&gt;ViewsModule</title>
<path fill="none" stroke="black" d="M510,-122.11C510,-141.34 510,-169 510,-169 510,-169 2452.04,-169 2452.04,-169"/>
<polygon fill="black" stroke="black" points="2452.04,-172.5 2462.04,-169 2452.04,-165.5 2452.04,-172.5"/>
</g>
<!-- RegistrationViewComponent -->
<g id="node21" class="node">
<title>RegistrationViewComponent</title>
<polygon fill="#ffffb3" stroke="black" points="396.08,-122 215.92,-122 215.92,-86 396.08,-86 396.08,-122"/>
<text text-anchor="middle" x="306" y="-99.8" font-family="Times,serif" font-size="14.00">RegistrationViewComponent</text>
</g>
<!-- RegistrationViewComponent&#45;&gt;ViewsModule -->
<g id="edge21" class="edge">
<title>RegistrationViewComponent&#45;&gt;ViewsModule</title>
<path fill="none" stroke="black" d="M306,-122.03C306,-141.58 306,-170 306,-170 306,-170 2452.18,-170 2452.18,-170"/>
<polygon fill="black" stroke="black" points="2452.18,-173.5 2462.18,-170 2452.18,-166.5 2452.18,-173.5"/>
</g>
<!-- SimpleTileViewComponent -->
<g id="node22" class="node">
<title>SimpleTileViewComponent</title>
<polygon fill="#ffffb3" stroke="black" points="197.87,-122 24.13,-122 24.13,-86 197.87,-86 197.87,-122"/>
<text text-anchor="middle" x="111" y="-99.8" font-family="Times,serif" font-size="14.00">SimpleTileViewComponent</text>
</g>
<!-- SimpleTileViewComponent&#45;&gt;ViewsModule -->
<g id="edge22" class="edge">
<title>SimpleTileViewComponent&#45;&gt;ViewsModule</title>
<path fill="none" stroke="black" d="M111,-122.22C111,-142.37 111,-172 111,-172 111,-172 2452.08,-172 2452.08,-172"/>
<polygon fill="black" stroke="black" points="2452.08,-175.5 2462.08,-172 2452.08,-168.5 2452.08,-175.5"/>
</g>
<!-- ApparentTemperatureTileViewComponent  -->
<g id="node25" class="node">
<title>ApparentTemperatureTileViewComponent </title>
<polygon fill="#fb8072" stroke="black" points="4206.8,-252 3945.2,-252 3945.2,-216 4206.8,-216 4206.8,-252"/>
<text text-anchor="middle" x="4076" y="-229.8" font-family="Times,serif" font-size="14.00">ApparentTemperatureTileViewComponent </text>
</g>
<!-- ViewsModule&#45;&gt;ApparentTemperatureTileViewComponent  -->
<g id="edge24" class="edge">
<title>ViewsModule&#45;&gt;ApparentTemperatureTileViewComponent </title>
<path fill="none" stroke="black" stroke-dasharray="5,2" d="M2557.78,-174C2810.9,-174 3983.72,-174 3983.72,-174 3983.72,-174 3983.72,-206 3983.72,-206"/>
<polygon fill="black" stroke="black" points="3980.22,-206 3983.72,-216 3987.22,-206 3980.22,-206"/>
</g>
<!-- ForecastDetailViewComponent  -->
<g id="node26" class="node">
<title>ForecastDetailViewComponent </title>
<polygon fill="#fb8072" stroke="black" points="3927.28,-252 3730.72,-252 3730.72,-216 3927.28,-216 3927.28,-252"/>
<text text-anchor="middle" x="3829" y="-229.8" font-family="Times,serif" font-size="14.00">ForecastDetailViewComponent </text>
</g>
<!-- ViewsModule&#45;&gt;ForecastDetailViewComponent  -->
<g id="edge25" class="edge">
<title>ViewsModule&#45;&gt;ForecastDetailViewComponent </title>
<path fill="none" stroke="black" stroke-dasharray="5,2" d="M2557.94,-176C2788.48,-176 3772.12,-176 3772.12,-176 3772.12,-176 3772.12,-205.97 3772.12,-205.97"/>
<polygon fill="black" stroke="black" points="3768.63,-205.97 3772.12,-215.97 3775.63,-205.97 3768.63,-205.97"/>
</g>
<!-- ForecastTileViewComponent  -->
<g id="node27" class="node">
<title>ForecastTileViewComponent </title>
<polygon fill="#fb8072" stroke="black" points="3712.62,-252 3527.38,-252 3527.38,-216 3712.62,-216 3712.62,-252"/>
<text text-anchor="middle" x="3620" y="-229.8" font-family="Times,serif" font-size="14.00">ForecastTileViewComponent </text>
</g>
<!-- ViewsModule&#45;&gt;ForecastTileViewComponent  -->
<g id="edge26" class="edge">
<title>ViewsModule&#45;&gt;ForecastTileViewComponent </title>
<path fill="none" stroke="black" stroke-dasharray="5,2" d="M2557.73,-178C2763.59,-178 3565.12,-178 3565.12,-178 3565.12,-178 3565.12,-205.97 3565.12,-205.97"/>
<polygon fill="black" stroke="black" points="3561.63,-205.97 3565.12,-215.97 3568.63,-205.97 3561.63,-205.97"/>
</g>
<!-- HistoryDetailViewComponent  -->
<g id="node28" class="node">
<title>HistoryDetailViewComponent </title>
<polygon fill="#fb8072" stroke="black" points="3509.85,-252 3318.15,-252 3318.15,-216 3509.85,-216 3509.85,-252"/>
<text text-anchor="middle" x="3414" y="-229.8" font-family="Times,serif" font-size="14.00">HistoryDetailViewComponent </text>
</g>
<!-- ViewsModule&#45;&gt;HistoryDetailViewComponent  -->
<g id="edge27" class="edge">
<title>ViewsModule&#45;&gt;HistoryDetailViewComponent </title>
<path fill="none" stroke="black" stroke-dasharray="5,2" d="M2557.86,-180C2737.4,-180 3360.62,-180 3360.62,-180 3360.62,-180 3360.62,-205.72 3360.62,-205.72"/>
<polygon fill="black" stroke="black" points="3357.13,-205.72 3360.62,-215.72 3364.13,-205.72 3357.13,-205.72"/>
</g>
<!-- HistoryTileViewComponent  -->
<g id="node29" class="node">
<title>HistoryTileViewComponent </title>
<polygon fill="#fb8072" stroke="black" points="3299.69,-252 3120.31,-252 3120.31,-216 3299.69,-216 3299.69,-252"/>
<text text-anchor="middle" x="3210" y="-229.8" font-family="Times,serif" font-size="14.00">HistoryTileViewComponent </text>
</g>
<!-- ViewsModule&#45;&gt;HistoryTileViewComponent  -->
<g id="edge28" class="edge">
<title>ViewsModule&#45;&gt;HistoryTileViewComponent </title>
<path fill="none" stroke="black" stroke-dasharray="5,2" d="M2557.69,-182C2707.49,-182 3158.62,-182 3158.62,-182 3158.62,-182 3158.62,-205.81 3158.62,-205.81"/>
<polygon fill="black" stroke="black" points="3155.13,-205.81 3158.62,-215.81 3162.13,-205.81 3155.13,-205.81"/>
</g>
<!-- HumidityTileViewComponent  -->
<g id="node30" class="node">
<title>HumidityTileViewComponent </title>
<polygon fill="#fb8072" stroke="black" points="3101.87,-252 2910.13,-252 2910.13,-216 3101.87,-216 3101.87,-252"/>
<text text-anchor="middle" x="3006" y="-229.8" font-family="Times,serif" font-size="14.00">HumidityTileViewComponent </text>
</g>
<!-- ViewsModule&#45;&gt;HumidityTileViewComponent  -->
<g id="edge29" class="edge">
<title>ViewsModule&#45;&gt;HumidityTileViewComponent </title>
<path fill="none" stroke="black" stroke-dasharray="5,2" d="M2557.8,-184C2673.01,-184 2956.62,-184 2956.62,-184 2956.62,-184 2956.62,-205.95 2956.62,-205.95"/>
<polygon fill="black" stroke="black" points="2953.13,-205.95 2956.62,-215.95 2960.13,-205.95 2953.13,-205.95"/>
</g>
<!-- IndoorDetailViewComponent  -->
<g id="node31" class="node">
<title>IndoorDetailViewComponent </title>
<polygon fill="#fb8072" stroke="black" points="2892.18,-252 2705.82,-252 2705.82,-216 2892.18,-216 2892.18,-252"/>
<text text-anchor="middle" x="2799" y="-229.8" font-family="Times,serif" font-size="14.00">IndoorDetailViewComponent </text>
</g>
<!-- ViewsModule&#45;&gt;IndoorDetailViewComponent  -->
<g id="edge30" class="edge">
<title>ViewsModule&#45;&gt;IndoorDetailViewComponent </title>
<path fill="none" stroke="black" stroke-dasharray="5,2" d="M2557.93,-186C2628.25,-186 2751.12,-186 2751.12,-186 2751.12,-186 2751.12,-205.85 2751.12,-205.85"/>
<polygon fill="black" stroke="black" points="2747.63,-205.85 2751.12,-215.85 2754.63,-205.85 2747.63,-205.85"/>
</g>
<!-- IndoorTileViewComponent  -->
<g id="node32" class="node">
<title>IndoorTileViewComponent </title>
<polygon fill="#fb8072" stroke="black" points="2687.52,-252 2512.48,-252 2512.48,-216 2687.52,-216 2687.52,-252"/>
<text text-anchor="middle" x="2600" y="-229.8" font-family="Times,serif" font-size="14.00">IndoorTileViewComponent </text>
</g>
<!-- ViewsModule&#45;&gt;IndoorTileViewComponent  -->
<g id="edge31" class="edge">
<title>ViewsModule&#45;&gt;IndoorTileViewComponent </title>
<path fill="none" stroke="black" stroke-dasharray="5,2" d="M2535.07,-187.11C2535.07,-187.11 2535.07,-205.99 2535.07,-205.99"/>
<polygon fill="black" stroke="black" points="2531.57,-205.99 2535.07,-215.99 2538.57,-205.99 2531.57,-205.99"/>
</g>
<!-- LoginViewComponent  -->
<g id="node33" class="node">
<title>LoginViewComponent </title>
<polygon fill="#fb8072" stroke="black" points="2494.09,-252 2345.91,-252 2345.91,-216 2494.09,-216 2494.09,-252"/>
<text text-anchor="middle" x="2420" y="-229.8" font-family="Times,serif" font-size="14.00">LoginViewComponent </text>
</g>
<!-- ViewsModule&#45;&gt;LoginViewComponent  -->
<g id="edge32" class="edge">
<title>ViewsModule&#45;&gt;LoginViewComponent </title>
<path fill="none" stroke="black" stroke-dasharray="5,2" d="M2478.32,-187.11C2478.32,-187.11 2478.32,-205.99 2478.32,-205.99"/>
<polygon fill="black" stroke="black" points="2474.82,-205.99 2478.32,-215.99 2481.82,-205.99 2474.82,-205.99"/>
</g>
<!-- OutdoorWeatherDetailViewComponent  -->
<g id="node34" class="node">
<title>OutdoorWeatherDetailViewComponent </title>
<polygon fill="#fb8072" stroke="black" points="2327.93,-252 2084.07,-252 2084.07,-216 2327.93,-216 2327.93,-252"/>
<text text-anchor="middle" x="2206" y="-229.8" font-family="Times,serif" font-size="14.00">OutdoorWeatherDetailViewComponent </text>
</g>
<!-- ViewsModule&#45;&gt;OutdoorWeatherDetailViewComponent  -->
<g id="edge33" class="edge">
<title>ViewsModule&#45;&gt;OutdoorWeatherDetailViewComponent </title>
<path fill="none" stroke="black" stroke-dasharray="5,2" d="M2462.19,-186C2398.73,-186 2294.58,-186 2294.58,-186 2294.58,-186 2294.58,-205.85 2294.58,-205.85"/>
<polygon fill="black" stroke="black" points="2291.08,-205.85 2294.58,-215.85 2298.08,-205.85 2291.08,-205.85"/>
</g>
<!-- OutdoorWeatherViewComponent  -->
<g id="node35" class="node">
<title>OutdoorWeatherViewComponent </title>
<polygon fill="#fb8072" stroke="black" points="2066.72,-252 1857.28,-252 1857.28,-216 2066.72,-216 2066.72,-252"/>
<text text-anchor="middle" x="1962" y="-229.8" font-family="Times,serif" font-size="14.00">OutdoorWeatherViewComponent </text>
</g>
<!-- ViewsModule&#45;&gt;OutdoorWeatherViewComponent  -->
<g id="edge34" class="edge">
<title>ViewsModule&#45;&gt;OutdoorWeatherViewComponent </title>
<path fill="none" stroke="black" stroke-dasharray="5,2" d="M2462.19,-184C2343.09,-184 2042.7,-184 2042.7,-184 2042.7,-184 2042.7,-205.95 2042.7,-205.95"/>
<polygon fill="black" stroke="black" points="2039.2,-205.95 2042.7,-215.95 2046.2,-205.95 2039.2,-205.95"/>
</g>
<!-- PersonalizationSettingsViewComponent  -->
<g id="node36" class="node">
<title>PersonalizationSettingsViewComponent </title>
<polygon fill="#fb8072" stroke="black" points="1839.07,-252 1592.93,-252 1592.93,-216 1839.07,-216 1839.07,-252"/>
<text text-anchor="middle" x="1716" y="-229.8" font-family="Times,serif" font-size="14.00">PersonalizationSettingsViewComponent </text>
</g>
<!-- ViewsModule&#45;&gt;PersonalizationSettingsViewComponent  -->
<g id="edge35" class="edge">
<title>ViewsModule&#45;&gt;PersonalizationSettingsViewComponent </title>
<path fill="none" stroke="black" stroke-dasharray="5,2" d="M2462.32,-182C2303.17,-182 1800.16,-182 1800.16,-182 1800.16,-182 1800.16,-205.81 1800.16,-205.81"/>
<polygon fill="black" stroke="black" points="1796.66,-205.81 1800.16,-215.81 1803.66,-205.81 1796.66,-205.81"/>
</g>
<!-- PollenflugDetailViewComponent  -->
<g id="node37" class="node">
<title>PollenflugDetailViewComponent </title>
<polygon fill="#fb8072" stroke="black" points="1574.69,-252 1367.31,-252 1367.31,-216 1574.69,-216 1574.69,-252"/>
<text text-anchor="middle" x="1471" y="-229.8" font-family="Times,serif" font-size="14.00">PollenflugDetailViewComponent </text>
</g>
<!-- ViewsModule&#45;&gt;PollenflugDetailViewComponent  -->
<g id="edge36" class="edge">
<title>ViewsModule&#45;&gt;PollenflugDetailViewComponent </title>
<path fill="none" stroke="black" stroke-dasharray="5,2" d="M2462.04,-180C2268.58,-180 1555.99,-180 1555.99,-180 1555.99,-180 1555.99,-205.72 1555.99,-205.72"/>
<polygon fill="black" stroke="black" points="1552.49,-205.72 1555.99,-215.72 1559.49,-205.72 1552.49,-205.72"/>
</g>
<!-- PollenflugSmallTileComponent  -->
<g id="node38" class="node">
<title>PollenflugSmallTileComponent </title>
<polygon fill="#fb8072" stroke="black" points="1349.38,-252 1150.62,-252 1150.62,-216 1349.38,-216 1349.38,-252"/>
<text text-anchor="middle" x="1250" y="-229.8" font-family="Times,serif" font-size="14.00">PollenflugSmallTileComponent </text>
</g>
<!-- ViewsModule&#45;&gt;PollenflugSmallTileComponent  -->
<g id="edge37" class="edge">
<title>ViewsModule&#45;&gt;PollenflugSmallTileComponent </title>
<path fill="none" stroke="black" stroke-dasharray="5,2" d="M2462.33,-178C2239.67,-178 1312.83,-178 1312.83,-178 1312.83,-178 1312.83,-205.97 1312.83,-205.97"/>
<polygon fill="black" stroke="black" points="1309.33,-205.97 1312.83,-215.97 1316.33,-205.97 1309.33,-205.97"/>
</g>
<!-- PollenflugTileViewComponent  -->
<g id="node39" class="node">
<title>PollenflugTileViewComponent </title>
<polygon fill="#fb8072" stroke="black" points="1133.03,-252 936.97,-252 936.97,-216 1133.03,-216 1133.03,-252"/>
<text text-anchor="middle" x="1035" y="-229.8" font-family="Times,serif" font-size="14.00">PollenflugTileViewComponent </text>
</g>
<!-- ViewsModule&#45;&gt;PollenflugTileViewComponent  -->
<g id="edge38" class="edge">
<title>ViewsModule&#45;&gt;PollenflugTileViewComponent </title>
<path fill="none" stroke="black" stroke-dasharray="5,2" d="M2462.16,-176C2215.25,-176 1096.52,-176 1096.52,-176 1096.52,-176 1096.52,-205.97 1096.52,-205.97"/>
<polygon fill="black" stroke="black" points="1093.02,-205.97 1096.52,-215.97 1100.02,-205.97 1093.02,-205.97"/>
</g>
<!-- RegistrationViewComponent  -->
<g id="node40" class="node">
<title>RegistrationViewComponent </title>
<polygon fill="#fb8072" stroke="black" points="918.58,-252 735.42,-252 735.42,-216 918.58,-216 918.58,-252"/>
<text text-anchor="middle" x="827" y="-229.8" font-family="Times,serif" font-size="14.00">RegistrationViewComponent </text>
</g>
<!-- ViewsModule&#45;&gt;RegistrationViewComponent  -->
<g id="edge39" class="edge">
<title>ViewsModule&#45;&gt;RegistrationViewComponent </title>
<path fill="none" stroke="black" stroke-dasharray="5,2" d="M2462.05,-174C2192.54,-174 878.35,-174 878.35,-174 878.35,-174 878.35,-206 878.35,-206"/>
<polygon fill="black" stroke="black" points="874.85,-206 878.35,-216 881.85,-206 874.85,-206"/>
</g>
<!-- UiElementsModule -->
<g id="node24" class="node">
<title>UiElementsModule</title>
<polygon fill="#8dd3c7" stroke="black" points="4920.65,-122 4917.65,-126 4896.65,-126 4893.65,-122 4795.35,-122 4795.35,-86 4920.65,-86 4920.65,-122"/>
<text text-anchor="middle" x="4858" y="-99.8" font-family="Times,serif" font-size="14.00">UiElementsModule</text>
</g>
<!-- UiElementsModule&#45;&gt;ViewsModule -->
<g id="edge23" class="edge">
<title>UiElementsModule&#45;&gt;ViewsModule</title>
<path fill="none" stroke="black" d="M4858,-122.22C4858,-142.37 4858,-172 4858,-172 4858,-172 2567.7,-172 2567.7,-172"/>
<polygon fill="black" stroke="black" points="2567.7,-168.5 2557.7,-172 2567.7,-175.5 2567.7,-168.5"/>
</g>
</g>
</svg>
